<mxfile host="Electron" modified="2024-05-21T09:04:57.303Z" agent="Mozilla/5.0 (Windows NT 10.0; Win64; x64) AppleWebKit/537.36 (KHTML, like Gecko) draw.io/24.2.5 Chrome/120.0.6099.109 Electron/28.1.0 Safari/537.36" etag="Kfm4zHdlePa8sUS70XpC" version="24.2.5" type="device">
  <diagram name="페이지-1" id="MYdrEwQb0vJzfZSgNc7l">
    <mxGraphModel dx="1194" dy="657" grid="1" gridSize="10" guides="1" tooltips="1" connect="1" arrows="1" fold="1" page="1" pageScale="1" pageWidth="827" pageHeight="1169" math="0" shadow="0">
      <root>
        <mxCell id="0" />
        <mxCell id="1" parent="0" />
        <mxCell id="9bm_VTMl0h2vw1RCIyA9-3" value="" style="edgeStyle=orthogonalEdgeStyle;rounded=0;orthogonalLoop=1;jettySize=auto;html=1;" edge="1" parent="1" source="9bm_VTMl0h2vw1RCIyA9-4" target="9bm_VTMl0h2vw1RCIyA9-9">
          <mxGeometry relative="1" as="geometry" />
        </mxCell>
        <mxCell id="9bm_VTMl0h2vw1RCIyA9-4" value="start" style="rounded=1;whiteSpace=wrap;html=1;" vertex="1" parent="1">
          <mxGeometry x="360" y="30" width="120" height="60" as="geometry" />
        </mxCell>
        <mxCell id="9bm_VTMl0h2vw1RCIyA9-5" value="" style="edgeStyle=orthogonalEdgeStyle;rounded=0;orthogonalLoop=1;jettySize=auto;html=1;" edge="1" parent="1" source="9bm_VTMl0h2vw1RCIyA9-9" target="9bm_VTMl0h2vw1RCIyA9-13">
          <mxGeometry relative="1" as="geometry" />
        </mxCell>
        <mxCell id="9bm_VTMl0h2vw1RCIyA9-6" value="no" style="edgeLabel;html=1;align=center;verticalAlign=middle;resizable=0;points=[];" vertex="1" connectable="0" parent="9bm_VTMl0h2vw1RCIyA9-5">
          <mxGeometry x="0.1867" y="2" relative="1" as="geometry">
            <mxPoint x="-4" as="offset" />
          </mxGeometry>
        </mxCell>
        <mxCell id="9bm_VTMl0h2vw1RCIyA9-7" value="" style="edgeStyle=orthogonalEdgeStyle;rounded=0;orthogonalLoop=1;jettySize=auto;html=1;" edge="1" parent="1" source="9bm_VTMl0h2vw1RCIyA9-9" target="9bm_VTMl0h2vw1RCIyA9-11">
          <mxGeometry relative="1" as="geometry" />
        </mxCell>
        <mxCell id="9bm_VTMl0h2vw1RCIyA9-8" value="yes" style="edgeLabel;html=1;align=center;verticalAlign=middle;resizable=0;points=[];" vertex="1" connectable="0" parent="9bm_VTMl0h2vw1RCIyA9-7">
          <mxGeometry x="-0.1" y="1" relative="1" as="geometry">
            <mxPoint y="1" as="offset" />
          </mxGeometry>
        </mxCell>
        <mxCell id="9bm_VTMl0h2vw1RCIyA9-9" value="# of arguments != 3" style="rhombus;whiteSpace=wrap;html=1;" vertex="1" parent="1">
          <mxGeometry x="360" y="120" width="120" height="80" as="geometry" />
        </mxCell>
        <mxCell id="9bm_VTMl0h2vw1RCIyA9-10" style="edgeStyle=orthogonalEdgeStyle;rounded=0;orthogonalLoop=1;jettySize=auto;html=1;entryX=0;entryY=0.5;entryDx=0;entryDy=0;" edge="1" parent="1" source="9bm_VTMl0h2vw1RCIyA9-11" target="9bm_VTMl0h2vw1RCIyA9-21">
          <mxGeometry relative="1" as="geometry" />
        </mxCell>
        <mxCell id="9bm_VTMl0h2vw1RCIyA9-11" value="print error" style="shape=parallelogram;perimeter=parallelogramPerimeter;whiteSpace=wrap;html=1;fixedSize=1;" vertex="1" parent="1">
          <mxGeometry x="520" y="130" width="120" height="60" as="geometry" />
        </mxCell>
        <mxCell id="9bm_VTMl0h2vw1RCIyA9-12" value="" style="edgeStyle=orthogonalEdgeStyle;rounded=0;orthogonalLoop=1;jettySize=auto;html=1;" edge="1" parent="1" source="9bm_VTMl0h2vw1RCIyA9-13" target="9bm_VTMl0h2vw1RCIyA9-18">
          <mxGeometry relative="1" as="geometry" />
        </mxCell>
        <mxCell id="9bm_VTMl0h2vw1RCIyA9-13" value="open socket" style="rounded=0;whiteSpace=wrap;html=1;" vertex="1" parent="1">
          <mxGeometry x="360" y="230" width="120" height="60" as="geometry" />
        </mxCell>
        <mxCell id="9bm_VTMl0h2vw1RCIyA9-14" value="" style="edgeStyle=orthogonalEdgeStyle;rounded=0;orthogonalLoop=1;jettySize=auto;html=1;" edge="1" parent="1" source="9bm_VTMl0h2vw1RCIyA9-18" target="9bm_VTMl0h2vw1RCIyA9-20">
          <mxGeometry relative="1" as="geometry" />
        </mxCell>
        <mxCell id="9bm_VTMl0h2vw1RCIyA9-15" value="yes" style="edgeLabel;html=1;align=center;verticalAlign=middle;resizable=0;points=[];" vertex="1" connectable="0" parent="9bm_VTMl0h2vw1RCIyA9-14">
          <mxGeometry x="-0.3667" relative="1" as="geometry">
            <mxPoint as="offset" />
          </mxGeometry>
        </mxCell>
        <mxCell id="9bm_VTMl0h2vw1RCIyA9-23" value="" style="edgeStyle=orthogonalEdgeStyle;rounded=0;orthogonalLoop=1;jettySize=auto;html=1;" edge="1" parent="1" source="9bm_VTMl0h2vw1RCIyA9-18" target="9bm_VTMl0h2vw1RCIyA9-22">
          <mxGeometry relative="1" as="geometry" />
        </mxCell>
        <mxCell id="9bm_VTMl0h2vw1RCIyA9-24" value="no" style="edgeLabel;html=1;align=center;verticalAlign=middle;resizable=0;points=[];" vertex="1" connectable="0" parent="9bm_VTMl0h2vw1RCIyA9-23">
          <mxGeometry x="0.2" y="-4" relative="1" as="geometry">
            <mxPoint as="offset" />
          </mxGeometry>
        </mxCell>
        <mxCell id="9bm_VTMl0h2vw1RCIyA9-18" value="socket error?" style="rhombus;whiteSpace=wrap;html=1;" vertex="1" parent="1">
          <mxGeometry x="360" y="320" width="120" height="80" as="geometry" />
        </mxCell>
        <mxCell id="9bm_VTMl0h2vw1RCIyA9-19" style="edgeStyle=orthogonalEdgeStyle;rounded=0;orthogonalLoop=1;jettySize=auto;html=1;entryX=0;entryY=0.5;entryDx=0;entryDy=0;" edge="1" parent="1" source="9bm_VTMl0h2vw1RCIyA9-20" target="9bm_VTMl0h2vw1RCIyA9-21">
          <mxGeometry relative="1" as="geometry" />
        </mxCell>
        <mxCell id="9bm_VTMl0h2vw1RCIyA9-20" value="print error" style="shape=parallelogram;perimeter=parallelogramPerimeter;whiteSpace=wrap;html=1;fixedSize=1;" vertex="1" parent="1">
          <mxGeometry x="520" y="330" width="120" height="60" as="geometry" />
        </mxCell>
        <mxCell id="9bm_VTMl0h2vw1RCIyA9-21" value="end" style="rounded=1;whiteSpace=wrap;html=1;" vertex="1" parent="1">
          <mxGeometry x="720" y="130" width="120" height="600" as="geometry" />
        </mxCell>
        <mxCell id="9bm_VTMl0h2vw1RCIyA9-28" value="" style="edgeStyle=orthogonalEdgeStyle;rounded=0;orthogonalLoop=1;jettySize=auto;html=1;" edge="1" parent="1" source="9bm_VTMl0h2vw1RCIyA9-22" target="9bm_VTMl0h2vw1RCIyA9-26">
          <mxGeometry relative="1" as="geometry" />
        </mxCell>
        <mxCell id="9bm_VTMl0h2vw1RCIyA9-22" value="set up server address" style="rounded=0;whiteSpace=wrap;html=1;" vertex="1" parent="1">
          <mxGeometry x="360" y="430" width="120" height="60" as="geometry" />
        </mxCell>
        <mxCell id="9bm_VTMl0h2vw1RCIyA9-32" style="edgeStyle=orthogonalEdgeStyle;rounded=0;orthogonalLoop=1;jettySize=auto;html=1;entryX=0.5;entryY=0;entryDx=0;entryDy=0;" edge="1" parent="1" source="9bm_VTMl0h2vw1RCIyA9-26" target="9bm_VTMl0h2vw1RCIyA9-29">
          <mxGeometry relative="1" as="geometry" />
        </mxCell>
        <mxCell id="9bm_VTMl0h2vw1RCIyA9-26" value="connect to server" style="rounded=0;whiteSpace=wrap;html=1;" vertex="1" parent="1">
          <mxGeometry x="360" y="510" width="120" height="60" as="geometry" />
        </mxCell>
        <mxCell id="9bm_VTMl0h2vw1RCIyA9-33" style="edgeStyle=orthogonalEdgeStyle;rounded=0;orthogonalLoop=1;jettySize=auto;html=1;entryX=0.5;entryY=0;entryDx=0;entryDy=0;" edge="1" parent="1" source="9bm_VTMl0h2vw1RCIyA9-29" target="9bm_VTMl0h2vw1RCIyA9-30">
          <mxGeometry relative="1" as="geometry" />
        </mxCell>
        <mxCell id="9bm_VTMl0h2vw1RCIyA9-29" value="call log_in function" style="rounded=0;whiteSpace=wrap;html=1;" vertex="1" parent="1">
          <mxGeometry x="360" y="590" width="120" height="60" as="geometry" />
        </mxCell>
        <mxCell id="9bm_VTMl0h2vw1RCIyA9-35" style="edgeStyle=orthogonalEdgeStyle;rounded=0;orthogonalLoop=1;jettySize=auto;html=1;entryX=0;entryY=0.5;entryDx=0;entryDy=0;" edge="1" parent="1" source="9bm_VTMl0h2vw1RCIyA9-30" target="9bm_VTMl0h2vw1RCIyA9-21">
          <mxGeometry relative="1" as="geometry">
            <Array as="points">
              <mxPoint x="680" y="700" />
              <mxPoint x="680" y="430" />
            </Array>
          </mxGeometry>
        </mxCell>
        <mxCell id="9bm_VTMl0h2vw1RCIyA9-30" value="close socket" style="rounded=0;whiteSpace=wrap;html=1;" vertex="1" parent="1">
          <mxGeometry x="360" y="670" width="120" height="60" as="geometry" />
        </mxCell>
      </root>
    </mxGraphModel>
  </diagram>
</mxfile>
